<?xml version="1.0" standalone="yes"?>

<svg version="1.1" viewBox="0.0 0.0 960.0 720.0" fill="none" stroke="none" stroke-linecap="square" stroke-miterlimit="10" xmlns="http://www.w3.org/2000/svg" xmlns:xlink="http://www.w3.org/1999/xlink"><clipPath id="p.0"><path d="m0 0l960.0 0l0 720.0l-960.0 0l0 -720.0z" clip-rule="nonzero"></path></clipPath><g clip-path="url(#p.0)"><path fill="#000000" fill-opacity="0.0" d="m0 0l960.0 0l0 720.0l-960.0 0z" fill-rule="nonzero"></path><path fill="#38761d" d="m260.1384 564.3386l14.215515 20.68689l0 0c1.8622742 2.710022 -15.551819 17.912842 -38.895462 33.95636c-23.343643 16.04358 -43.77707 26.85254 -45.639343 24.142517l-14.2155 -20.68689l0 0c-1.8622742 -2.710022 15.551819 -17.912842 38.895462 -33.95642c23.343643 -16.043518 43.777084 -26.852478 45.639328 -24.142456z" fill-rule="nonzero"></path><path stroke="#000000" stroke-width="2.0" stroke-linejoin="round" stroke-linecap="butt" d="m260.1384 564.3386l14.215515 20.68689l0 0c1.8622742 2.710022 -15.551819 17.912842 -38.895462 33.95636c-23.343643 16.04358 -43.77707 26.85254 -45.639343 24.142517l-14.2155 -20.68689l0 0c-1.8622742 -2.710022 15.551819 -17.912842 38.895462 -33.95642c23.343643 -16.043518 43.777084 -26.852478 45.639328 -24.142456z" fill-rule="nonzero"></path><path fill="#38761d" d="m256.33957 533.2968l13.227295 19.24878l0 0c1.7327881 2.5216675 -14.50444 16.690979 -36.26689 31.648071c-21.762451 14.957092 -40.809128 25.038025 -42.541946 22.516357l-13.227295 -19.24878l0 0c-1.7328033 -2.5216675 14.504425 -16.690979 36.266876 -31.648071c21.762466 -14.957092 40.809128 -25.037964 42.54196 -22.516357z" fill-rule="nonzero"></path><path stroke="#000000" stroke-width="2.0" stroke-linejoin="round" stroke-linecap="butt" d="m256.33957 533.2968l13.227295 19.24878l0 0c1.7327881 2.5216675 -14.50444 16.690979 -36.26689 31.648071c-21.762451 14.957092 -40.809128 25.038025 -42.541946 22.516357l-13.227295 -19.24878l0 0c-1.7328033 -2.5216675 14.504425 -16.690979 36.266876 -31.648071c21.762466 -14.957092 40.809128 -25.037964 42.54196 -22.516357z" fill-rule="nonzero"></path><path fill="#38761d" d="m88.579056 590.9481l12.654373 -19.710205l0 0c1.657753 -2.5820923 21.275604 7.0563965 43.817688 21.528137c22.542099 14.471802 39.4722 28.296692 37.814438 30.878784l-12.654373 19.710205l0 0c-1.6577606 2.5820923 -21.275604 -7.0563965 -43.817696 -21.528198c-22.542091 -14.471741 -39.472183 -28.29663 -37.81443 -30.878723z" fill-rule="nonzero"></path><path stroke="#000000" stroke-width="2.0" stroke-linejoin="round" stroke-linecap="butt" d="m88.579056 590.9481l12.654373 -19.710205l0 0c1.657753 -2.5820923 21.275604 7.0563965 43.817688 21.528137c22.542099 14.471802 39.4722 28.296692 37.814438 30.878784l-12.654373 19.710205l0 0c-1.6577606 2.5820923 -21.275604 -7.0563965 -43.817696 -21.528198c-22.542091 -14.471741 -39.472183 -28.29663 -37.81443 -30.878723z" fill-rule="nonzero"></path><path fill="#38761d" d="m95.50858 555.764l14.946075 -20.882935l0 0c1.9579773 -2.7357178 20.692223 7.3239136 41.844124 22.468872c21.151901 15.1449585 36.71164 29.640137 34.753662 32.375854l-14.946075 20.882935l0 0c-1.957962 2.7357788 -20.69223 -7.3239136 -41.844116 -22.468872c-21.151901 -15.1449585 -36.711647 -29.640076 -34.75367 -32.375854z" fill-rule="nonzero"></path><path stroke="#000000" stroke-width="2.0" stroke-linejoin="round" stroke-linecap="butt" d="m95.50858 555.764l14.946075 -20.882935l0 0c1.9579773 -2.7357178 20.692223 7.3239136 41.844124 22.468872c21.151901 15.1449585 36.71164 29.640137 34.753662 32.375854l-14.946075 20.882935l0 0c-1.957962 2.7357788 -20.69223 -7.3239136 -41.844116 -22.468872c-21.151901 -15.1449585 -36.711647 -29.640076 -34.75367 -32.375854z" fill-rule="nonzero"></path><path fill="#38761d" d="m167.9176 504.14056l25.135712 0l0 0c3.2928467 0 5.962219 36.155823 5.962219 80.756226c0 44.600403 -2.6693726 80.756226 -5.962219 80.756226l-25.135712 0l0 0c-3.2928467 0 -5.962219 -36.155823 -5.962219 -80.756226c0 -44.600403 2.6693726 -80.756226 5.962219 -80.756226z" fill-rule="nonzero"></path><path stroke="#000000" stroke-width="2.0" stroke-linejoin="round" stroke-linecap="butt" d="m167.9176 504.14056l25.135712 0l0 0c3.2928467 0 5.962219 36.155823 5.962219 80.756226c0 44.600403 -2.6693726 80.756226 -5.962219 80.756226l-25.135712 0l0 0c-3.2928467 0 -5.962219 -36.155823 -5.962219 -80.756226c0 -44.600403 2.6693726 -80.756226 5.962219 -80.756226z" fill-rule="nonzero"></path><path fill="#38761d" d="m559.99274 478.14667l13.704102 25.785553l0 0c1.7952881 3.3779602 -14.995422 22.326752 -37.50305 42.323273c-22.50763 19.996521 -42.209045 33.468567 -44.004333 30.090576l-13.704102 -25.785522l0 0c-1.7952576 -3.3779907 14.995422 -22.326782 37.503113 -42.323303c22.50763 -19.996552 42.209045 -33.468536 44.004272 -30.090576z" fill-rule="nonzero"></path><path stroke="#000000" stroke-width="2.0" stroke-linejoin="round" stroke-linecap="butt" d="m559.99274 478.14667l13.704102 25.785553l0 0c1.7952881 3.3779602 -14.995422 22.326752 -37.50305 42.323273c-22.50763 19.996521 -42.209045 33.468567 -44.004333 30.090576l-13.704102 -25.785522l0 0c-1.7952576 -3.3779907 14.995422 -22.326782 37.503113 -42.323303c22.50763 -19.996552 42.209045 -33.468536 44.004272 -30.090576z" fill-rule="nonzero"></path><path fill="#38761d" d="m548.8285 388.70853l12.492859 23.49768l0 0c1.6365967 3.0782776 -14.936279 21.47696 -37.01654 41.094635c-22.08023 19.617676 -41.30655 33.025513 -42.943146 29.947266l-12.492859 -23.49768l0 0c-1.6365967 -3.078247 14.936249 -21.47696 37.01651 -41.094635c22.080261 -19.617676 41.30658 -33.025513 42.943176 -29.947266z" fill-rule="nonzero"></path><path stroke="#000000" stroke-width="2.0" stroke-linejoin="round" stroke-linecap="butt" d="m548.8285 388.70853l12.492859 23.49768l0 0c1.6365967 3.0782776 -14.936279 21.47696 -37.01654 41.094635c-22.08023 19.617676 -41.30655 33.025513 -42.943146 29.947266l-12.492859 -23.49768l0 0c-1.6365967 -3.078247 14.936249 -21.47696 37.01651 -41.094635c22.080261 -19.617676 41.30658 -33.025513 42.943176 -29.947266z" fill-rule="nonzero"></path><path fill="#38761d" d="m381.4265 415.00125l12.200623 -24.55893l0 0c1.5983276 -3.2172852 20.514404 8.796051 42.250244 26.83252c21.73584 18.036499 38.060516 35.266083 36.46219 38.483368l-12.200623 24.55896l0 0c-1.5983276 3.2172852 -20.514404 -8.796051 -42.250244 -26.83255c-21.73584 -18.036499 -38.060516 -35.266083 -36.46219 -38.483368z" fill-rule="nonzero"></path><path stroke="#000000" stroke-width="2.0" stroke-linejoin="round" stroke-linecap="butt" d="m381.4265 415.00125l12.200623 -24.55893l0 0c1.5983276 -3.2172852 20.514404 8.796051 42.250244 26.83252c21.73584 18.036499 38.060516 35.266083 36.46219 38.483368l-12.200623 24.55896l0 0c-1.5983276 3.2172852 -20.514404 -8.796051 -42.250244 -26.83255c-21.73584 -18.036499 -38.060516 -35.266083 -36.46219 -38.483368z" fill-rule="nonzero"></path><path fill="#38761d" d="m377.4742 511.41617l14.342377 -25.90091l0 0c1.8789062 -3.3930664 22.31186 11.358643 45.638275 32.948853c23.326416 21.590271 40.713074 41.84326 38.834167 45.23633l-14.342377 25.90094l0 0c-1.8789062 3.3930664 -22.311829 -11.358643 -45.638245 -32.948914c-23.326447 -21.59021 -40.713104 -41.8432 -38.834198 -45.236298z" fill-rule="nonzero"></path><path stroke="#000000" stroke-width="2.0" stroke-linejoin="round" stroke-linecap="butt" d="m377.4742 511.41617l14.342377 -25.90091l0 0c1.8789062 -3.3930664 22.31186 11.358643 45.638275 32.948853c23.326416 21.590271 40.713074 41.84326 38.834167 45.23633l-14.342377 25.90094l0 0c-1.8789062 3.3930664 -22.311829 -11.358643 -45.638245 -32.948914c-23.326447 -21.59021 -40.713104 -41.8432 -38.834198 -45.236298z" fill-rule="nonzero"></path><path fill="#38761d" d="m460.2895 372.5742l25.135712 0l0 0c3.2928467 0 5.962219 66.33914 5.962219 148.17258c0 81.833496 -2.6693726 148.1726 -5.962219 148.1726l-25.135712 0l0 0c-3.2928467 0 -5.962219 -66.33911 -5.962219 -148.1726c0 -81.833435 2.6693726 -148.17258 5.962219 -148.17258z" fill-rule="nonzero"></path><path stroke="#000000" stroke-width="2.0" stroke-linejoin="round" stroke-linecap="butt" d="m460.2895 372.5742l25.135712 0l0 0c3.2928467 0 5.962219 66.33914 5.962219 148.17258c0 81.833496 -2.6693726 148.1726 -5.962219 148.1726l-25.135712 0l0 0c-3.2928467 0 -5.962219 -66.33911 -5.962219 -148.1726c0 -81.833435 2.6693726 -148.17258 5.962219 -148.17258z" fill-rule="nonzero"></path><path fill="#38761d" d="m877.671 500.33783l8.4938965 21.932678l0 0c1.1127319 2.873291 -14.723572 25.604736 -35.371338 50.772278c-20.647827 25.16748 -38.288208 43.24054 -39.40094 40.36725l-8.4938965 -21.932678l0 0c-1.1127319 -2.87323 14.723572 -25.604736 35.3714 -50.772217c20.647766 -25.16748 38.288147 -43.24057 39.40088 -40.36731z" fill-rule="nonzero"></path><path stroke="#000000" stroke-width="2.0" stroke-linejoin="round" stroke-linecap="butt" d="m877.671 500.33783l8.4938965 21.932678l0 0c1.1127319 2.873291 -14.723572 25.604736 -35.371338 50.772278c-20.647827 25.16748 -38.288208 43.24054 -39.40094 40.36725l-8.4938965 -21.932678l0 0c-1.1127319 -2.87323 14.723572 -25.604736 35.3714 -50.772217c20.647766 -25.16748 38.288147 -43.24057 39.40088 -40.36731z" fill-rule="nonzero"></path><path fill="#38761d" d="m872.14594 299.8087l8.936157 23.055481l0 0c1.1706543 3.0203552 -14.20752 25.371063 -34.348083 49.921722c-20.140564 24.55066 -37.416748 42.004456 -38.587402 38.9841l-8.936096 -23.055481l0 0c-1.1706543 -3.0203247 14.20752 -25.371033 34.348083 -49.92169c20.140564 -24.55066 37.416687 -42.004456 38.58734 -38.98413z" fill-rule="nonzero"></path><path stroke="#000000" stroke-width="2.0" stroke-linejoin="round" stroke-linecap="butt" d="m872.14594 299.8087l8.936157 23.055481l0 0c1.1706543 3.0203552 -14.20752 25.371063 -34.348083 49.921722c-20.140564 24.55066 -37.416748 42.004456 -38.587402 38.9841l-8.936096 -23.055481l0 0c-1.1706543 -3.0203247 14.20752 -25.371033 34.348083 -49.92169c20.140564 -24.55066 37.416687 -42.004456 38.58734 -38.98413z" fill-rule="nonzero"></path><path fill="#38761d" d="m705.4513 322.57156l8.851501 -24.439728l0 0c1.1596069 -3.2016907 19.058777 13.511169 39.978943 37.329163c20.920227 23.817993 36.939392 45.72177 35.779785 48.92343l-8.851501 24.439728l0 0c-1.1596069 3.2016907 -19.058777 -13.511169 -39.978943 -37.329163c-20.920227 -23.817993 -36.939392 -45.72177 -35.779785 -48.92343z" fill-rule="nonzero"></path><path stroke="#000000" stroke-width="2.0" stroke-linejoin="round" stroke-linecap="butt" d="m705.4513 322.57156l8.851501 -24.439728l0 0c1.1596069 -3.2016907 19.058777 13.511169 39.978943 37.329163c20.920227 23.817993 36.939392 45.72177 35.779785 48.92343l-8.851501 24.439728l0 0c-1.1596069 3.2016907 -19.058777 -13.511169 -39.978943 -37.329163c-20.920227 -23.817993 -36.939392 -45.72177 -35.779785 -48.92343z" fill-rule="nonzero"></path><path fill="#38761d" d="m704.6191 515.8083l9.912781 -24.55896l0 0c1.298645 -3.2172852 21.158386 18.058044 44.35797 47.519775c23.199585 29.461731 40.953857 55.95331 39.655273 59.170593l-9.912781 24.55896l0 0c-1.298584 3.2172852 -21.158325 -18.058044 -44.35791 -47.519775c-23.199646 -29.461731 -40.95392 -55.95331 -39.655334 -59.170593z" fill-rule="nonzero"></path><path stroke="#000000" stroke-width="2.0" stroke-linejoin="round" stroke-linecap="butt" d="m704.6191 515.8083l9.912781 -24.55896l0 0c1.298645 -3.2172852 21.158386 18.058044 44.35797 47.519775c23.199585 29.461731 40.953857 55.95331 39.655273 59.170593l-9.912781 24.55896l0 0c-1.298584 3.2172852 -21.158325 -18.058044 -44.35791 -47.519775c-23.199646 -29.461731 -40.95392 -55.95331 -39.655334 -59.170593z" fill-rule="nonzero"></path><path fill="#38761d" d="m781.6439 255.99089l26.531494 0l0 0c3.475708 0 6.293335 96.08461 6.293335 214.61101c0 118.5264 -2.817627 214.61105 -6.293335 214.61105l-26.531494 0l0 0c-3.475708 0 -6.293274 -96.084656 -6.293274 -214.61105c0 -118.5264 2.817566 -214.61101 6.293274 -214.61101z" fill-rule="nonzero"></path><path stroke="#000000" stroke-width="2.0" stroke-linejoin="round" stroke-linecap="butt" d="m781.6439 255.99089l26.531494 0l0 0c3.475708 0 6.293335 96.08461 6.293335 214.61101c0 118.5264 -2.817627 214.61105 -6.293335 214.61105l-26.531494 0l0 0c-3.475708 0 -6.293274 -96.084656 -6.293274 -214.61105c0 -118.5264 2.817566 -214.61101 6.293274 -214.61101z" fill-rule="nonzero"></path><path fill="#cfe2f3" d="m180.48557 430.67584c7.7230988 -30.737518 37.84317 0 0 39.519684c-37.84317 -39.519684 -7.7230988 -70.2572 0 -39.519684z" fill-rule="nonzero"></path><path stroke="#000000" stroke-width="2.0" stroke-linejoin="round" stroke-linecap="butt" d="m180.48557 430.67584c7.7230988 -30.737518 37.84317 0 0 39.519684c-37.84317 -39.519684 -7.7230988 -70.2572 0 -39.519684z" fill-rule="nonzero"></path><path fill="#cfe2f3" d="m212.12715 438.88074c23.84253 -20.86612 31.123367 21.542023 -22.48819 32.480316c-8.635162 -54.02231 33.627304 -62.1391 22.48819 -32.480316z" fill-rule="nonzero"></path><path stroke="#000000" stroke-width="2.0" stroke-linejoin="round" stroke-linecap="butt" d="m212.12715 438.88074c23.84253 -20.86612 31.123367 21.542023 -22.48819 32.480316c-8.635162 -54.02231 33.627304 -62.1391 22.48819 -32.480316z" fill-rule="nonzero"></path><path fill="#cfe2f3" d="m235.46056 462.6193c29.132553 -12.48819 22.924545 30.094513 -31.440948 23.952759c8.516403 -54.04724 51.216537 -48.724396 31.440948 -23.952759z" fill-rule="nonzero"></path><path stroke="#000000" stroke-width="2.0" stroke-linejoin="round" stroke-linecap="butt" d="m235.46056 462.6193c29.132553 -12.48819 22.924545 30.094513 -31.440948 23.952759c8.516403 -54.04724 51.216537 -48.724396 31.440948 -23.952759z" fill-rule="nonzero"></path><path fill="#cfe2f3" d="m237.67253 499.45804c30.730972 7.7230835 -0.03215027 37.84317 -39.519684 0c39.551834 -37.8432 70.26378 -7.723114 39.519684 0z" fill-rule="nonzero"></path><path stroke="#000000" stroke-width="2.0" stroke-linejoin="round" stroke-linecap="butt" d="m237.67253 499.45804c30.730972 7.7230835 -0.03215027 37.84317 -39.519684 0c39.551834 -37.8432 70.26378 -7.723114 39.519684 0z" fill-rule="nonzero"></path><path fill="#cfe2f3" d="m220.17987 530.39197c15.022308 27.893677 -27.940292 25.496704 -26.645676 -29.173248c54.585968 3.6765137 53.07219 46.660126 26.645676 29.173248z" fill-rule="nonzero"></path><path stroke="#000000" stroke-width="2.0" stroke-linejoin="round" stroke-linecap="butt" d="m220.17987 530.39197c15.022308 27.893677 -27.940292 25.496704 -26.645676 -29.173248c54.585968 3.6765137 53.07219 46.660126 26.645676 29.173248z" fill-rule="nonzero"></path><path fill="#cfe2f3" d="m188.80634 540.41943c-7.7230835 30.730957 -37.84317 -0.032165527 0 -39.519714c37.843185 39.55182 7.7230988 70.263794 0 39.519714z" fill-rule="nonzero"></path><path stroke="#000000" stroke-width="2.0" stroke-linejoin="round" stroke-linecap="butt" d="m188.80634 540.41943c-7.7230835 30.730957 -37.84317 -0.032165527 0 -39.519714c37.843185 39.55182 7.7230988 70.263794 0 39.519714z" fill-rule="nonzero"></path><path fill="#cfe2f3" d="m158.35683 530.95233c-25.24147 19.158813 -29.515747 -23.696198 24.708664 -30.850403c4.807083 54.54663 -37.902893 59.68109 -24.708664 30.850403z" fill-rule="nonzero"></path><path stroke="#000000" stroke-width="2.0" stroke-linejoin="round" stroke-linecap="butt" d="m158.35683 530.95233c-25.24147 19.158813 -29.515747 -23.696198 24.708664 -30.850403c4.807083 54.54663 -37.902893 59.68109 -24.708664 30.850403z" fill-rule="nonzero"></path><path fill="#cfe2f3" d="m136.44826 506.30084c-30.28215 9.364807 -19.645012 -32.345154 33.779526 -20.527557c-14.134506 52.87271 -56.043304 43.094513 -33.779526 20.527557z" fill-rule="nonzero"></path><path stroke="#000000" stroke-width="2.0" stroke-linejoin="round" stroke-linecap="butt" d="m136.44826 506.30084c-30.28215 9.364807 -19.645012 -32.345154 33.779526 -20.527557c-14.134506 52.87271 -56.043304 43.094513 -33.779526 20.527557z" fill-rule="nonzero"></path><path fill="#cfe2f3" d="m128.8534 473.65463c-30.737534 -7.7230835 0 -37.84317 39.519684 0c-39.519684 37.84317 -70.25722 7.7230835 -39.519684 0z" fill-rule="nonzero"></path><path stroke="#000000" stroke-width="2.0" stroke-linejoin="round" stroke-linecap="butt" d="m128.8534 473.65463c-30.737534 -7.7230835 0 -37.84317 39.519684 0c-39.519684 37.84317 -70.25722 7.7230835 -39.519684 0z" fill-rule="nonzero"></path><path fill="#cfe2f3" d="m144.9146 446.78683c-16.089249 -27.301819 26.943573 -26.55774 27.755905 28.13388c-54.69948 -1.5761414 -54.84252 -44.595825 -27.755905 -28.13388z" fill-rule="nonzero"></path><path stroke="#000000" stroke-width="2.0" stroke-linejoin="round" stroke-linecap="butt" d="m144.9146 446.78683c-16.089249 -27.301819 26.943573 -26.55774 27.755905 28.13388c-54.69948 -1.5761414 -54.84252 -44.595825 -27.755905 -28.13388z" fill-rule="nonzero"></path><path fill="#674ea7" d="m137.43045 483.46326l0 0c0 -21.386902 19.276428 -38.724426 43.055115 -38.724426l0 0c23.778687 0 43.055115 17.337524 43.055115 38.724426l0 0c0 21.386902 -19.276428 38.724426 -43.055115 38.724426l0 0c-23.778687 0 -43.055115 -17.337524 -43.055115 -38.724426z" fill-rule="nonzero"></path><path stroke="#000000" stroke-width="2.0" stroke-linejoin="round" stroke-linecap="butt" d="m137.43045 483.46326l0 0c0 -21.386902 19.276428 -38.724426 43.055115 -38.724426l0 0c23.778687 0 43.055115 17.337524 43.055115 38.724426l0 0c0 21.386902 -19.276428 38.724426 -43.055115 38.724426l0 0c-23.778687 0 -43.055115 -17.337524 -43.055115 -38.724426z" fill-rule="nonzero"></path><path fill="#cfe2f3" d="m471.9685 285.31628c7.7230835 -30.737549 37.84317 0 0 39.519684c-37.84317 -39.519684 -7.723114 -70.25723 0 -39.519684z" fill-rule="nonzero"></path><path stroke="#000000" stroke-width="2.0" stroke-linejoin="round" stroke-linecap="butt" d="m471.9685 285.31628c7.7230835 -30.737549 37.84317 0 0 39.519684c-37.84317 -39.519684 -7.723114 -70.25723 0 -39.519684z" fill-rule="nonzero"></path><path fill="#cfe2f3" d="m503.6101 293.52118c23.84253 -20.86615 31.123352 21.541992 -22.48819 32.480316c-8.635193 -54.02231 33.62729 -62.13913 22.48819 -32.480316z" fill-rule="nonzero"></path><path stroke="#000000" stroke-width="2.0" stroke-linejoin="round" stroke-linecap="butt" d="m503.6101 293.52118c23.84253 -20.86615 31.123352 21.541992 -22.48819 32.480316c-8.635193 -54.02231 33.62729 -62.13913 22.48819 -32.480316z" fill-rule="nonzero"></path><path fill="#cfe2f3" d="m526.9435 317.25974c29.132568 -12.48819 22.92456 30.094482 -31.440918 23.952759c8.516388 -54.04727 51.216553 -48.724426 31.440918 -23.952759z" fill-rule="nonzero"></path><path stroke="#000000" stroke-width="2.0" stroke-linejoin="round" stroke-linecap="butt" d="m526.9435 317.25974c29.132568 -12.48819 22.92456 30.094482 -31.440918 23.952759c8.516388 -54.04727 51.216553 -48.724426 31.440918 -23.952759z" fill-rule="nonzero"></path><path fill="#cfe2f3" d="m529.15546 354.09845c30.731018 7.7230835 -0.032104492 37.84317 -39.519653 0c39.55182 -37.84317 70.263794 -7.723114 39.519653 0z" fill-rule="nonzero"></path><path stroke="#000000" stroke-width="2.0" stroke-linejoin="round" stroke-linecap="butt" d="m529.15546 354.09845c30.731018 7.7230835 -0.032104492 37.84317 -39.519653 0c39.55182 -37.84317 70.263794 -7.723114 39.519653 0z" fill-rule="nonzero"></path><path fill="#cfe2f3" d="m511.6628 385.03235c15.022308 27.893707 -27.940277 25.496735 -26.64566 -29.173218c54.585938 3.6765137 53.072144 46.660095 26.64566 29.173218z" fill-rule="nonzero"></path><path stroke="#000000" stroke-width="2.0" stroke-linejoin="round" stroke-linecap="butt" d="m511.6628 385.03235c15.022308 27.893707 -27.940277 25.496735 -26.64566 -29.173218c54.585938 3.6765137 53.072144 46.660095 26.64566 29.173218z" fill-rule="nonzero"></path><path fill="#cfe2f3" d="m480.28928 395.05984c-7.7230835 30.730957 -37.84317 -0.032165527 0 -39.519684c37.84317 39.55182 7.723114 70.26376 0 39.519684z" fill-rule="nonzero"></path><path stroke="#000000" stroke-width="2.0" stroke-linejoin="round" stroke-linecap="butt" d="m480.28928 395.05984c-7.7230835 30.730957 -37.84317 -0.032165527 0 -39.519684c37.84317 39.55182 7.723114 70.26376 0 39.519684z" fill-rule="nonzero"></path><path fill="#cfe2f3" d="m449.83978 385.59274c-25.241486 19.158813 -29.515747 -23.696167 24.708649 -30.850372c4.8070984 54.54657 -37.902893 59.68109 -24.708649 30.850372z" fill-rule="nonzero"></path><path stroke="#000000" stroke-width="2.0" stroke-linejoin="round" stroke-linecap="butt" d="m449.83978 385.59274c-25.241486 19.158813 -29.515747 -23.696167 24.708649 -30.850372c4.8070984 54.54657 -37.902893 59.68109 -24.708649 30.850372z" fill-rule="nonzero"></path><path fill="#cfe2f3" d="m427.93118 360.94125c-30.282135 9.364838 -19.644989 -32.345123 33.77954 -20.527557c-14.1345215 52.87271 -56.043304 43.094482 -33.77954 20.527557z" fill-rule="nonzero"></path><path stroke="#000000" stroke-width="2.0" stroke-linejoin="round" stroke-linecap="butt" d="m427.93118 360.94125c-30.282135 9.364838 -19.644989 -32.345123 33.77954 -20.527557c-14.1345215 52.87271 -56.043304 43.094482 -33.77954 20.527557z" fill-rule="nonzero"></path><path fill="#cfe2f3" d="m420.33633 328.29504c-30.737518 -7.7230835 0 -37.84317 39.519684 0c-39.519684 37.84317 -70.2572 7.723114 -39.519684 0z" fill-rule="nonzero"></path><path stroke="#000000" stroke-width="2.0" stroke-linejoin="round" stroke-linecap="butt" d="m420.33633 328.29504c-30.737518 -7.7230835 0 -37.84317 39.519684 0c-39.519684 37.84317 -70.2572 7.723114 -39.519684 0z" fill-rule="nonzero"></path><path fill="#cfe2f3" d="m436.39752 301.42728c-16.089233 -27.30185 26.943573 -26.55777 27.75592 28.13385c-54.699493 -1.5761108 -54.84253 -44.595795 -27.75592 -28.13385z" fill-rule="nonzero"></path><path stroke="#000000" stroke-width="2.0" stroke-linejoin="round" stroke-linecap="butt" d="m436.39752 301.42728c-16.089233 -27.30185 26.943573 -26.55777 27.75592 28.13385c-54.699493 -1.5761108 -54.84253 -44.595795 -27.75592 -28.13385z" fill-rule="nonzero"></path><path fill="#674ea7" d="m428.9134 338.10367l0 0c0 -21.386902 19.276428 -38.724396 43.055115 -38.724396l0 0c23.778687 0 43.055115 17.337494 43.055115 38.724396l0 0c0 21.386902 -19.276428 38.724426 -43.055115 38.724426l0 0c-23.778687 0 -43.055115 -17.337524 -43.055115 -38.724426z" fill-rule="nonzero"></path><path stroke="#000000" stroke-width="2.0" stroke-linejoin="round" stroke-linecap="butt" d="m428.9134 338.10367l0 0c0 -21.386902 19.276428 -38.724396 43.055115 -38.724396l0 0c23.778687 0 43.055115 17.337494 43.055115 38.724396l0 0c0 21.386902 -19.276428 38.724426 -43.055115 38.724426l0 0c-23.778687 0 -43.055115 -17.337524 -43.055115 -38.724426z" fill-rule="nonzero"></path><path fill="#cfe2f3" d="m788.25275 165.77559c8.700745 -37.902885 42.63385 0 0 48.732285c-42.63385 -48.732285 -8.700806 -86.63517 0 -48.732285z" fill-rule="nonzero"></path><path stroke="#000000" stroke-width="2.0" stroke-linejoin="round" stroke-linecap="butt" d="m788.25275 165.77559c8.700745 -37.902885 42.63385 0 0 48.732285c-42.63385 -48.732285 -8.700806 -86.63517 0 -48.732285z" fill-rule="nonzero"></path><path fill="#cfe2f3" d="m823.923 175.88605c26.891052 -25.721786 35.078064 26.55774 -25.370056 40.039368c-9.708008 -66.59712 37.943542 -76.60106 25.370056 -40.039368z" fill-rule="nonzero"></path><path stroke="#000000" stroke-width="2.0" stroke-linejoin="round" stroke-linecap="butt" d="m823.923 175.88605c26.891052 -25.721786 35.078064 26.55774 -25.370056 40.039368c-9.708008 -66.59712 37.943542 -76.60106 25.370056 -40.039368z" fill-rule="nonzero"></path><path fill="#cfe2f3" d="m850.23413 205.16174c32.853027 -15.393707 25.850403 37.10367 -35.456665 29.527557c9.606323 -66.631226 57.758545 -60.065613 35.456665 -29.527557z" fill-rule="nonzero"></path><path stroke="#000000" stroke-width="2.0" stroke-linejoin="round" stroke-linecap="butt" d="m850.23413 205.16174c32.853027 -15.393707 25.850403 37.10367 -35.456665 29.527557c9.606323 -66.631226 57.758545 -60.065613 35.456665 -29.527557z" fill-rule="nonzero"></path><path fill="#cfe2f3" d="m852.7293 250.59239c34.64435 9.520981 -0.032165527 46.652878 -44.55121 0c44.583374 -46.652893 79.20868 -9.520996 44.55121 0z" fill-rule="nonzero"></path><path stroke="#000000" stroke-width="2.0" stroke-linejoin="round" stroke-linecap="butt" d="m852.7293 250.59239c34.64435 9.520981 -0.032165527 46.652878 -44.55121 0c44.583374 -46.652893 79.20868 -9.520996 44.55121 0z" fill-rule="nonzero"></path><path fill="#cfe2f3" d="m833.00726 288.74948c16.921265 34.398956 -31.509216 31.444885 -30.02362 -35.976364c61.532776 4.531479 59.805786 57.540665 30.02362 35.976364z" fill-rule="nonzero"></path><path stroke="#000000" stroke-width="2.0" stroke-linejoin="round" stroke-linecap="butt" d="m833.00726 288.74948c16.921265 34.398956 -31.509216 31.444885 -30.02362 -35.976364c61.532776 4.531479 59.805786 57.540665 30.02362 35.976364z" fill-rule="nonzero"></path><path fill="#cfe2f3" d="m797.6563 301.11942c-8.700806 37.89633 -42.63385 -0.03213501 0 -48.73227c42.63385 48.764435 8.700745 86.64172 0 48.73227z" fill-rule="nonzero"></path><path stroke="#000000" stroke-width="2.0" stroke-linejoin="round" stroke-linecap="butt" d="m797.6563 301.11942c-8.700806 37.89633 -42.63385 -0.03213501 0 -48.73227c42.63385 48.764435 8.700745 86.64172 0 48.73227z" fill-rule="nonzero"></path><path fill="#cfe2f3" d="m763.3165 289.44214c-28.452759 23.615479 -33.277527 -29.22638 27.850403 -38.031494c5.427185 67.25787 -42.72046 73.57611 -27.850403 38.031494z" fill-rule="nonzero"></path><path stroke="#000000" stroke-width="2.0" stroke-linejoin="round" stroke-linecap="butt" d="m763.3165 289.44214c-28.452759 23.615479 -33.277527 -29.22638 27.850403 -38.031494c5.427185 67.25787 -42.72046 73.57611 -27.850403 38.031494z" fill-rule="nonzero"></path><path fill="#cfe2f3" d="m738.63617 259.0459c-34.131287 11.5590515 -22.120789 -39.868774 38.078735 -25.32283c-15.958008 65.191605 -63.18109 53.15486 -38.078735 25.32283z" fill-rule="nonzero"></path><path stroke="#000000" stroke-width="2.0" stroke-linejoin="round" stroke-linecap="butt" d="m738.63617 259.0459c-34.131287 11.5590515 -22.120789 -39.868774 38.078735 -25.32283c-15.958008 65.191605 -63.18109 53.15486 -38.078735 25.32283z" fill-rule="nonzero"></path><path fill="#cfe2f3" d="m730.0638 218.78682c-34.65088 -9.520996 0 -46.652878 44.55121 0c-44.55121 46.65291 -79.20209 9.521011 -44.55121 0z" fill-rule="nonzero"></path><path stroke="#000000" stroke-width="2.0" stroke-linejoin="round" stroke-linecap="butt" d="m730.0638 218.78682c-34.65088 -9.520996 0 -46.652878 44.55121 0c-44.55121 46.65291 -79.20209 9.521011 -44.55121 0z" fill-rule="nonzero"></path><path fill="#cfe2f3" d="m748.1695 185.65717c-18.124634 -33.669296 30.383911 -32.730972 31.275635 34.70079c-61.659485 -1.9698181 -61.80188 -55.010498 -31.275635 -34.70079z" fill-rule="nonzero"></path><path stroke="#000000" stroke-width="2.0" stroke-linejoin="round" stroke-linecap="butt" d="m748.1695 185.65717c-18.124634 -33.669296 30.383911 -32.730972 31.275635 34.70079c-61.659485 -1.9698181 -61.80188 -55.010498 -31.275635 -34.70079z" fill-rule="nonzero"></path><path fill="#674ea7" d="m739.73126 230.8834l0 0c0 -26.379211 21.730042 -47.76378 48.5354 -47.76378l0 0c12.8723755 0 25.21759 5.032242 34.319763 13.989685c9.102112 8.957443 14.215698 21.106354 14.215698 33.774094l0 0c0 26.379196 -21.730103 47.76378 -48.53546 47.76378l0 0c-26.805359 0 -48.5354 -21.384583 -48.5354 -47.76378z" fill-rule="nonzero"></path><path stroke="#000000" stroke-width="2.0" stroke-linejoin="round" stroke-linecap="butt" d="m739.73126 230.8834l0 0c0 -26.379211 21.730042 -47.76378 48.5354 -47.76378l0 0c12.8723755 0 25.21759 5.032242 34.319763 13.989685c9.102112 8.957443 14.215698 21.106354 14.215698 33.774094l0 0c0 26.379196 -21.730103 47.76378 -48.53546 47.76378l0 0c-26.805359 0 -48.5354 -21.384583 -48.5354 -47.76378z" fill-rule="nonzero"></path><path fill="#000000" fill-opacity="0.0" d="m50.401573 174.73097l384.0 0l0 48.0l-384.0 0z" fill-rule="nonzero"></path><path fill="#000000" fill-opacity="0.0" d="m153.2231 286.90027l160.85039 0l0 153.07086l-160.85039 0z" fill-rule="nonzero"></path><path fill="#000000" d="m197.98872 388.06027l-8.4375 0l0 -53.765625q-3.046875 2.90625 -8.0 5.8125q-4.9375 2.90625 -8.875 4.359375l0 -8.15625q7.078125 -3.328125 12.375 -8.0625q5.296875 -4.734375 7.5 -9.1875l5.4375 0l0 69.0z" fill-rule="nonzero"></path><path fill="#000000" fill-opacity="0.0" d="m411.7874 147.35564l122.14172 0l0 65.00787l-122.14172 0z" fill-rule="nonzero"></path><path fill="#000000" d="m495.7874 240.40627l0 8.109375l-45.421875 0q-0.09375 -3.046875 0.984375 -5.859375q1.734375 -4.640625 5.546875 -9.140625q3.828125 -4.5 11.046875 -10.40625q11.203125 -9.1875 15.140625 -14.546875q3.9375 -5.375 3.9375 -10.15625q0 -5.015625 -3.59375 -8.453125q-3.578125 -3.453125 -9.34375 -3.453125q-6.09375 0 -9.75 3.65625q-3.65625 3.65625 -3.703125 10.125l-8.671875 -0.890625q0.890625 -9.703125 6.703125 -14.78125q5.8125 -5.09375 15.609375 -5.09375q9.890625 0 15.65625 5.484375q5.765625 5.484375 5.765625 13.59375q0 4.125 -1.6875 8.109375q-1.6875 3.984375 -5.609375 8.390625q-3.90625 4.40625 -13.0 12.09375q-7.59375 6.375 -9.75 8.65625q-2.15625 2.265625 -3.5625 4.5625l33.703125 0z" fill-rule="nonzero"></path><path fill="#000000" fill-opacity="0.0" d="m757.45404 25.434383l160.8504 0l0 101.51181l-160.8504 0z" fill-rule="nonzero"></path><path fill="#000000" d="m770.4853 108.45375l8.4375 -1.125q1.453125 7.171875 4.9375 10.34375q3.5 3.15625 8.515625 3.15625q5.953125 0 10.046875 -4.125q4.109375 -4.125 4.109375 -10.21875q0 -5.8125 -3.796875 -9.578125q-3.796875 -3.78125 -9.65625 -3.78125q-2.390625 0 -5.953125 0.9375l0.9375 -7.40625q0.84375 0.09375 1.359375 0.09375q5.390625 0 9.703125 -2.8125q4.3125 -2.8125 4.3125 -8.671875q0 -4.640625 -3.140625 -7.6875q-3.140625 -3.046875 -8.109375 -3.046875q-4.921875 0 -8.203125 3.09375q-3.28125 3.09375 -4.21875 9.28125l-8.4375 -1.5q1.546875 -8.484375 7.03125 -13.140621q5.484375 -4.671875 13.640625 -4.671875q5.625 0 10.359375 2.421875q4.734375 2.40625 7.234375 6.578121q2.515625 4.171875 2.515625 8.859375q0 4.453125 -2.390625 8.109375q-2.390625 3.65625 -7.078125 5.8125q6.09375 1.40625 9.46875 5.84375q3.375 4.421875 3.375 11.078125q0 9.0 -6.5625 15.265625q-6.5625 6.25 -16.59375 6.25q-9.046875 0 -15.03125 -5.390625q-5.96875 -5.390625 -6.8125 -13.96875z" fill-rule="nonzero"></path></g></svg>

